<svg width="904" height="360" fill="none" xmlns="http://www.w3.org/2000/svg"><path transform="matrix(0 -1 -1 0 809 118)" fill="url(#paint0_linear_48:119)" d="M0 0h57v14H0z"/><path transform="matrix(0 -1 -1 0 904 118)" fill="url(#paint1_linear_48:119)" d="M0 0h78v23H0z"/><path transform="matrix(0 -1 -1 0 865 118)" fill="url(#paint2_linear_48:119)" d="M0 0h108v33H0z"/><path transform="matrix(0 -1 -1 0 49 118)" fill="url(#paint3_linear_48:119)" d="M0 0h118v49H0z"/><path transform="matrix(0 -1 -1 0 65 360)" fill="url(#paint4_linear_48:119)" d="M0 0h41v17H0z"/><defs><linearGradient id="paint0_linear_48:119" x1="0" y1="7" x2="56.874" y2="9.802" gradientUnits="userSpaceOnUse"><stop stop-color="#FF8F8F"/><stop offset="1" stop-color="#FF8F8F" stop-opacity="0"/></linearGradient><linearGradient id="paint1_linear_48:119" x1="0" y1="11.5" x2="77.885" y2="14.697" gradientUnits="userSpaceOnUse"><stop stop-color="#FF8F8F"/><stop offset="1" stop-color="#FF8F8F" stop-opacity="0"/></linearGradient><linearGradient id="paint2_linear_48:119" x1="0" y1="16.5" x2="107.854" y2="20.772" gradientUnits="userSpaceOnUse"><stop stop-color="#FF8F8F"/><stop offset="1" stop-color="#FF8F8F" stop-opacity="0"/></linearGradient><linearGradient id="paint3_linear_48:119" x1="0" y1="24.5" x2="117.925" y2="27.937" gradientUnits="userSpaceOnUse"><stop stop-color="#FF8F8F"/><stop offset="1" stop-color="#FF8F8F" stop-opacity="0"/></linearGradient><linearGradient id="paint4_linear_48:119" x1="0" y1="8.5" x2="40.974" y2="9.696" gradientUnits="userSpaceOnUse"><stop stop-color="#FF8F8F"/><stop offset="1" stop-color="#FF8F8F" stop-opacity="0"/></linearGradient></defs></svg>