<svg width="519" height="777" fill="none" xmlns="http://www.w3.org/2000/svg"><path fill-rule="evenodd" clip-rule="evenodd" d="M236.779.841C85.79 10.217 6.889 95.558 0 249.883h152.312c1.908-53.458 31.802-93.421 87.464-99.314 54.638-5.788 106.472 7.201 122.172 44.484 16.958 40.274-21.11 87.075-39.21 106.721-33.501 36.428-87.918 63.001-116.126 102.305-27.649 38.513-32.567 89.186-34.695 151.204h134.239c1.881-39.653 4.528-77.635 22.602-102.279 29.401-40.042 73.308-58.806 110.105-90.43 35.149-30.225 72.128-66.654 78.408-123.038C536.123 70.784 398.109-9.208 236.779.841z" fill="url(#paint0_linear_45:143)"/><path d="M240.23 777c46.808 0 84.752-37.298 84.752-83.307 0-46.01-37.944-83.308-84.752-83.308-46.807 0-84.752 37.298-84.752 83.308 0 46.009 37.945 83.307 84.752 83.307z" fill="url(#paint1_linear_45:143)"/><defs><linearGradient id="paint0_linear_45:143" x1="236" y1="0" x2="256.08" y2="776.636" gradientUnits="userSpaceOnUse"><stop stop-color="#FF8F8F" stop-opacity="0"/><stop offset=".503" stop-color="#FF8F8F"/><stop offset="1" stop-color="#FF8F8F" stop-opacity="0"/></linearGradient><linearGradient id="paint1_linear_45:143" x1="236" y1="0" x2="256.08" y2="776.636" gradientUnits="userSpaceOnUse"><stop stop-color="#FF8F8F" stop-opacity="0"/><stop offset=".503" stop-color="#FF8F8F"/><stop offset="1" stop-color="#FF8F8F" stop-opacity="0"/></linearGradient></defs></svg>