<svg width="32" height="42" fill="none" xmlns="http://www.w3.org/2000/svg"><path d="M3.098 23.813l-.4.3.4-.3zM16 41l-.4.3.4.533.4-.533-.4-.3zm12.902-17.188l-.4-.3.4.3zM31 16.078h-.5.5zm-7.276-.944a.5.5 0 00-.38-.925l.38.925zm-15.093-.935a.5.5 0 00-.33.944l.33-.944zm12.776-4.224a.5.5 0 10-.862-.508l.862.508zm-.879 11.384a.5.5 0 00.896-.446l-.896.446zM11.455 9.467a.5.5 0 10-.862.508l.862-.508zm-.879 11.446a.5.5 0 00.896.446l-.896-.446zM16 .5C7.437.5.5 7.477.5 16.078h1C1.5 8.024 7.994 1.5 16 1.5v-1zM.5 16.078c0 2.832.548 5.836 2.199 8.035l.8-.6C2.035 21.563 1.5 18.815 1.5 16.077h-1zm2.199 8.035L15.6 41.3l.8-.6L3.498 23.512l-.8.6zm13.7 17.187l12.902-17.187-.8-.6-12.9 17.187.799.6zm12.902-17.187c.762-1.015 1.308-2.389 1.665-3.806.358-1.423.534-2.926.534-4.229h-1c0 1.22-.166 2.642-.504 3.985-.34 1.35-.843 2.581-1.494 3.45l.8.6zm2.199-8.035C31.5 7.477 24.563.5 16 .5v1c8.006 0 14.5 6.524 14.5 14.578h1zM16 23.5a8.071 8.071 0 008.071-8.071h-1A7.071 7.071 0 0116 22.5v1zm8.071-8.071A8.071 8.071 0 0016 7.357v1a7.071 7.071 0 017.071 7.072h1zM16 7.357a8.071 8.071 0 00-8.071 8.072h1A7.071 7.071 0 0116 8.357v-1zM7.929 15.43A8.071 8.071 0 0016 23.5v-1a7.071 7.071 0 01-7.071-7.071h-1zM16.5 23V7.857h-1V23h1zm6.843-8.79c-4.768 1.964-9.019 1.975-14.712-.01l-.33.944c5.886 2.052 10.394 2.063 15.423-.01l-.38-.925zm-2.798-4.743c-2.118 3.598-2.1 7.712-.017 11.892l.896-.446c-1.956-3.926-1.938-7.676-.017-10.938l-.862-.508zm-9.952.508c1.92 3.262 1.94 7.012-.017 10.938l.896.446c2.082-4.18 2.101-8.294-.017-11.892l-.862.508z" fill="#FCFCFC"/></svg>