<svg width="85" height="84" fill="none" xmlns="http://www.w3.org/2000/svg"><g filter="url(#filter0_d_25:410)"><path d="M39.468 12.497c1.998-2.724 6.066-2.724 8.064 0l4.714 6.427a5 5 0 004.233 2.039l7.964-.322c3.376-.136 5.912 3.044 5.028 6.305l-2.086 7.692a5 5 0 001.046 4.582l5.217 6.026c2.21 2.553 1.306 6.52-1.794 7.861l-7.315 3.166a5 5 0 00-2.93 3.673l-1.459 7.836c-.618 3.321-4.283 5.086-7.265 3.499l-7.035-3.745a5 5 0 00-4.7 0l-7.035 3.745c-2.982 1.587-6.647-.178-7.265-3.499l-1.459-7.836a5 5 0 00-2.93-3.673l-7.314-3.166c-3.1-1.342-4.006-5.308-1.795-7.861l5.217-6.026a5 5 0 001.046-4.581l-2.086-7.693c-.884-3.26 1.652-6.441 5.028-6.305l7.964.322a5 5 0 004.233-2.039l4.714-6.427z" fill="#FCFCFC"/></g><defs><filter id="filter0_d_25:410" x=".131" y=".454" width="84.738" height="83.417" filterUnits="userSpaceOnUse" color-interpolation-filters="sRGB"><feFlood flood-opacity="0" result="BackgroundImageFix"/><feColorMatrix in="SourceAlpha" values="0 0 0 0 0 0 0 0 0 0 0 0 0 0 0 0 0 0 127 0" result="hardAlpha"/><feMorphology radius="2" operator="dilate" in="SourceAlpha" result="effect1_dropShadow_25:410"/><feOffset dx="-1" dy="1"/><feGaussianBlur stdDeviation="4.5"/><feComposite in2="hardAlpha" operator="out"/><feColorMatrix values="0 0 0 0 1 0 0 0 0 0.411133 0 0 0 0 0.330833 0 0 0 0.35 0"/><feBlend in2="BackgroundImageFix" result="effect1_dropShadow_25:410"/><feBlend in="SourceGraphic" in2="effect1_dropShadow_25:410" result="shape"/></filter></defs></svg>