<svg width="33" height="33" fill="none" xmlns="http://www.w3.org/2000/svg"><path d="M16.496 10.998a5.514 5.514 0 00-5.503 5.502 5.514 5.514 0 005.503 5.502 5.514 5.514 0 005.502-5.502 5.514 5.514 0 00-5.502-5.502zM32.998 16.5c0-2.278.02-4.536-.107-6.81-.128-2.643-.73-4.987-2.662-6.919C28.293.835 25.951.237 23.31.109 21.032-.02 18.774 0 16.5 0c-2.279 0-4.537-.02-6.811.108-2.642.128-4.986.73-6.918 2.662C.835 4.707.237 7.047.109 9.689-.02 11.968 0 14.226 0 16.5s-.02 4.536.108 6.81c.128 2.643.73 4.987 2.662 6.919 1.936 1.936 4.276 2.535 6.918 2.662 2.278.128 4.536.108 6.81.108 2.28 0 4.537.02 6.811-.108 2.642-.127 4.987-.73 6.919-2.662 1.935-1.936 2.534-4.276 2.662-6.918.132-2.275.107-4.532.107-6.811zm-16.502 8.466A8.454 8.454 0 018.03 16.5a8.454 8.454 0 018.466-8.466 8.454 8.454 0 018.466 8.466 8.454 8.454 0 01-8.466 8.466zm8.812-15.302a1.975 1.975 0 01-1.977-1.977c0-1.094.883-1.977 1.977-1.977a1.975 1.975 0 011.828 2.734 1.975 1.975 0 01-1.828 1.22z" fill="#442E2E"/></svg>