<svg width="33" height="33" fill="none" xmlns="http://www.w3.org/2000/svg"><path d="M32.391 9.713v.004c.112 1.982.11 3.95.108 5.948a771.918 771.918 0 000 1.77c.003 1.964.006 3.899-.107 5.847v.005c-.126 2.579-.705 4.776-2.517 6.588-1.809 1.809-4.01 2.392-6.589 2.517h-.004c-1.981.112-3.95.11-5.948.107a771.548 771.548 0 00-1.667 0c-1.995.003-3.965.005-5.95-.107h-.004c-2.579-.125-4.776-.704-6.589-2.517-1.808-1.808-2.391-4.01-2.516-6.588h0v-.004C.496 21.3.498 19.329.5 17.333a759.204 759.204 0 000-1.666c-.003-1.995-.005-3.965.107-5.95h0v-.004c.125-2.579.704-4.776 2.516-6.588C4.933 1.316 7.134.733 9.714.608h.003c1.981-.112 3.95-.11 5.948-.107a761.761 761.761 0 001.668 0c1.995-.003 3.964-.005 5.95.107v0h.003c2.58.125 4.776.704 6.589 2.517 1.808 1.808 2.392 4.01 2.516 6.588zM11.493 16.5a5.014 5.014 0 015.003-5.002 5.014 5.014 0 015.002 5.002 5.014 5.014 0 01-5.002 5.002 5.014 5.014 0 01-5.003-5.002zm-3.963 0a8.954 8.954 0 008.966 8.966 8.954 8.954 0 008.966-8.966 8.954 8.954 0 00-8.966-8.966A8.954 8.954 0 007.53 16.5zm15.3-8.813a2.475 2.475 0 002.477 2.477l1.977-2.477h.5s0 0 0 0a2.475 2.475 0 00-2.477-2.477 2.475 2.475 0 00-2.477 2.477z" stroke="#FCFCFC"/></svg>