<svg width="122" height="170" fill="none" xmlns="http://www.w3.org/2000/svg"><path d="M79.603 70.075c.69.834 1.654 5.327.343 5.662m-.343-5.662c-.49-.592-10.283-17.54-14.628-30.74m14.628 30.74c-2.392.626-8.929-.8-15.935-11.51-8.758-13.386-7.617-18.45-17-23.698-7.505-4.2-14.458-9.953-16.996-12.305m50.274 53.175c-1.311.334-4.726-3.246-6.382-2.914-1.656.332-4.003 3.419-5.832 2.611-1.212-.536-2.486-.343-2.954-.725m15.168 1.028c-.519 1.732-1.92 5.077-3.383 4.596-1.463-.48-8.466-3.95-11.785-5.624M47.866 58.44s11.694 5.095 14.453 7.531c2.76 2.437 3.345 5.582 2.481 7.541-.29.66-.26 1.002-.022 1.196M47.866 58.44c-.298-1.083-1.358-3.481-3.207-4.407m3.207 4.407c.193 2.624 11.355 11.938 16.912 16.268M44.659 54.034c-2.31-1.156-7.76-4.58-9.002-6.039-1.241-1.459-1.586-3.462-2.344-4.227m11.346 10.267c.691-2.272 1.273-7.222-1.928-8.848-3.201-1.626-7.613-1.624-9.418-1.42m0 0c-.485-.488-.914-.441-1.654-.842m-7.413-16.376c-1.484.299-.553.479-3.038 3.012-2.485 2.534 6.931 10.164 8.828 12.076.685.691 1.204 1.061 1.623 1.288m-7.413-16.376c1.187-.24 2.68-1.348 3.278-1.872a42.775 42.775 0 012.148-2.115m-5.426 3.987c1.196.354 4.512 1.967 8.209 5.584 3.697 3.618 1.01 8.702-.796 10.792m30.898-26.3c-.724-.667-1.542-1.036-2.218-1.18-.59-.173-3.313.595-4.003.797-.69.202-3.243-.232-5.45-1.63-2.208-1.397-2.484-1.813-5.761-1.735-3.278.077-9.905 6.374-11.837 7.05-.925.322-2.348 1.472-3.616 2.635m32.885-5.937c1.627 1.5 2.783 4.502.813 9.816-1.028 2.775-.162 7.524 1.605 12.894m-2.418-22.71c.813-.37 2.743-.927 3.957-.2 1.518.909 3.38 2.925 1.826 7.087-1.554 4.163-2.314 5.744-3.109 8.326-.635 2.065-.435 5.858-.256 7.497m-3.97 66.402l10.97 18.101a.05.05 0 01.001.003c1.914 3.187 5.435 5.165 9.176 5.165.985 0 1.986-.13 2.956-.421l24.193-6.872v31.785c0 2.074-1.429 3.909-3.476 4.427l-.004.001-41.24 10.262-2.576-62.451zm0 0l-10.954 18.104v.001a10.781 10.781 0 01-9.195 5.183c-.985 0-1.986-.13-2.956-.421l-24.193-6.89v31.784a4.557 4.557 0 003.47 4.425l.006.001 41.203 10.263.005.001a10.96 10.96 0 005.186.001l-2.572-62.452zm18.761 13.421L63.483 92.276l45.382-5.762h.005a1.616 1.616 0 011.649.874h.001l9.81 19.492.003.006a1.62 1.62 0 01-1.017 2.274l-.004.001-37.707 10.715-.002.001a1.64 1.64 0 01-1.837-.718v-.001zM13.134 86.515l45.39 5.76-16.3 26.864h0a1.639 1.639 0 01-1.837.719h-.002L2.668 109.139s0 0 0 0a1.589 1.589 0 01-.996-2.247s0 0 0 0l9.817-19.503v-.001c.3-.598.943-.95 1.645-.873z" stroke="#442E2E" stroke-width="3"/></svg>