<svg width="187" height="167" fill="none" xmlns="http://www.w3.org/2000/svg"><path d="M131.479 128.653a27.312 27.312 0 00-13.74-7.672A51.89 51.89 0 00106 119.419v-10.616a6.814 6.814 0 00-2.146-4.732A6.791 6.791 0 0099 102.233a6.79 6.79 0 00-4.854 1.838 6.814 6.814 0 00-2.145 4.732v20.03l-3.2-3.165a7.533 7.533 0 00-10.56 0 7.35 7.35 0 00-2.24 5.268 7.217 7.217 0 002 5.128l9.32 11.057a23.123 23.123 0 002.86 8.012 20.267 20.267 0 004 5.087v3.846a2.144 2.144 0 002 2.163h27.818a2.146 2.146 0 002-2.163v-5.408a25.684 25.684 0 006-16.745v-12.019a2.004 2.004 0 00-.52-1.241zm-3.48 13.36a21.495 21.495 0 01-5.2 14.542c-.441.36-.728.876-.8 1.442v4.327H98.28v-2.965a2.006 2.006 0 00-.88-1.662 14.546 14.546 0 01-3.64-4.467 18.332 18.332 0 01-2.4-7.051 2.007 2.007 0 00-.46-1.182l-9.839-11.657a3.401 3.401 0 01-1.012-2.424 3.407 3.407 0 011.012-2.424 3.519 3.519 0 014.94 0l6 6.009v6.29l4-2.003v-29.985a2.845 2.845 0 013-2.564 2.838 2.838 0 012.999 2.564v23.635l4 .862v-9.855c1.678.033 3.354.153 5.02.36v10.476l3.2.701v-10.716c.819.16 1.659.34 2.519.561a29.76 29.76 0 013.06.981v10.316l3.2.701v-9.555a22.145 22.145 0 015 3.466v11.277z" fill="#442E2E"/><path d="M122.603 70.352c.69.834 1.654 5.327.343 5.661m-.343-5.66c-.49-.593-10.283-17.542-14.628-30.741m14.628 30.74c-2.392.626-8.928-.801-15.935-11.51-8.758-13.387-7.617-18.45-17-23.698-7.505-4.2-14.458-9.953-16.996-12.305m50.274 53.174c-1.311.335-4.725-3.245-6.382-2.913-1.656.332-4.003 3.419-5.831 2.61-1.213-.535-2.487-.343-2.955-.724m15.168 1.027c-.518 1.733-1.92 5.078-3.383 4.597-1.463-.48-8.466-3.95-11.785-5.624M90.866 58.718s11.695 5.095 14.454 7.531c2.759 2.437 3.344 5.581 2.481 7.541-.291.66-.261 1.002-.023 1.196M90.866 58.718c-.298-1.083-1.357-3.481-3.206-4.407m3.207 4.407c.192 2.624 11.354 11.938 16.911 16.268M87.66 54.31c-2.311-1.156-7.761-4.58-9.003-6.039-1.241-1.459-1.585-3.463-2.344-4.228M87.66 54.311c.69-2.271 1.272-7.221-1.929-8.847-3.2-1.626-7.612-1.624-9.418-1.42m0 0c-.485-.488-.913-.441-1.654-.842m-7.413-16.376c-1.484.299-.552.479-3.037 3.012-2.486 2.534 6.93 10.164 8.827 12.076.685.691 1.204 1.06 1.623 1.288m-7.413-16.376c1.187-.24 2.68-1.348 3.278-1.872a42.83 42.83 0 012.148-2.115m-5.426 3.987c1.196.354 4.512 1.967 8.209 5.584 3.697 3.618 1.01 8.702-.796 10.792m30.898-26.3c-.724-.667-1.542-1.037-2.218-1.18-.59-.173-3.312.595-4.002.797-.69.201-3.243-.232-5.451-1.63-2.208-1.397-2.483-1.813-5.761-1.736-3.278.078-9.905 6.375-11.837 7.05-.925.323-2.348 1.473-3.616 2.636m32.885-5.937c1.627 1.5 2.783 4.502.814 9.816-1.029 2.775-.163 7.524 1.604 12.893m-2.418-22.709c.813-.37 2.743-.927 3.957-.2 1.518.909 3.38 2.924 1.826 7.087-1.554 4.163-2.314 5.744-3.108 8.325-.636 2.066-.436 5.859-.257 7.498" stroke="#442E2E" stroke-width="3"/><path d="M36.203 41.86c.412.499.988 3.183.205 3.383m-.205-3.382c-.293-.354-6.143-10.479-8.739-18.364m8.74 18.364c-1.43.373-5.335-.479-9.52-6.876-5.232-7.997-4.55-11.021-10.155-14.157-4.484-2.508-8.638-5.945-10.154-7.35m30.033 31.765c-.784.2-2.823-1.94-3.812-1.74-.99.197-2.392 2.042-3.484 1.559-.725-.32-1.486-.205-1.765-.433m9.06.614c-.309 1.035-1.146 3.033-2.02 2.746-.874-.287-5.058-2.36-7.04-3.36M17.244 34.91s6.986 3.043 8.634 4.499c1.648 1.456 1.998 3.334 1.482 4.505-.173.394-.155.598-.013.714M17.244 34.91c-.178-.647-.811-2.08-1.915-2.633m1.915 2.633c.115 1.567 6.783 7.131 10.103 9.718m-12.019-12.35c-1.38-.692-4.636-2.737-5.377-3.608-.742-.872-.948-2.069-1.4-2.526m6.777 6.133c.413-1.357.76-4.314-1.151-5.285-1.913-.971-4.548-.97-5.627-.848m0 0c-.29-.292-.545-.264-.988-.503m-4.428-9.783c-.887.179-.33.286-1.815 1.8-1.484 1.513 4.14 6.071 5.274 7.214.409.412.719.633.97.769m-4.43-9.783c.71-.143 1.602-.805 1.96-1.118.306-.326.773-.797 1.282-1.264M3.134 15.86c.714.212 2.695 1.175 4.904 3.336 2.208 2.161.603 5.198-.476 6.447M26.02 9.932a2.885 2.885 0 00-1.325-.706c-.353-.103-1.979.356-2.391.476-.412.12-1.937-.139-3.256-.974-1.319-.834-1.483-1.083-3.442-1.036-1.958.046-5.916 3.808-7.07 4.21-.553.194-1.403.88-2.16 1.575M26.02 9.931c.972.896 1.663 2.69.486 5.864-.614 1.658-.097 4.495.959 7.702M26.02 9.931c.486-.22 1.639-.554 2.364-.12.907.543 2.02 1.748 1.09 4.234-.928 2.487-1.382 3.431-1.856 4.973-.38 1.234-.26 3.5-.153 4.479M172.203 41.86c.412.498.988 3.182.205 3.382m-.205-3.382c-.293-.353-6.143-10.478-8.739-18.363m8.739 18.363c-1.429.374-5.334-.478-9.519-6.876-5.232-7.997-4.551-11.021-10.156-14.157-4.483-2.508-8.637-5.945-10.153-7.35m30.033 31.765c-.784.2-2.823-1.939-3.813-1.74-.989.198-2.391 2.042-3.483 1.56-.725-.32-1.486-.206-1.765-.434m9.061.614c-.31 1.035-1.147 3.033-2.021 2.746-.874-.287-5.058-2.36-7.04-3.36m-10.103-9.718s6.986 3.044 8.634 4.5c1.648 1.455 1.998 3.333 1.482 4.504-.173.394-.155.599-.013.714m-10.103-9.718c-.178-.647-.811-2.08-1.916-2.632m1.916 2.633c.115 1.567 6.783 7.131 10.103 9.717m-12.019-12.35c-1.38-.691-4.636-2.736-5.377-3.608-.742-.871-.948-2.068-1.401-2.525m6.778 6.133c.413-1.357.761-4.314-1.152-5.285-1.912-.972-4.547-.97-5.626-.848m0 0c-.289-.292-.545-.264-.988-.504m-4.428-9.782c-.887.178-.33.286-1.815 1.8-1.484 1.513 4.14 6.07 5.274 7.213.409.413.719.634.969.77m-4.428-9.783c.709-.143 1.601-.805 1.958-1.119.307-.326.774-.796 1.283-1.263m-3.241 2.382c.714.211 2.695 1.175 4.904 3.336 2.208 2.16.603 5.198-.476 6.446m18.458-15.71a2.888 2.888 0 00-1.325-.705c-.353-.104-1.979.355-2.391.475-.412.12-1.937-.138-3.256-.973-1.319-.835-1.484-1.083-3.442-1.037-1.958.047-5.916 3.808-7.071 4.211-.552.193-1.402.88-2.16 1.575m19.645-3.546c.972.895 1.663 2.689.486 5.863-.615 1.658-.097 4.495.958 7.703M162.02 9.93c.486-.221 1.639-.555 2.364-.12.907.543 2.019 1.747 1.091 4.234-.929 2.486-1.383 3.43-1.857 4.973-.38 1.234-.261 3.5-.154 4.479" stroke="#442E2E"/></svg>